<?xml version="1.0" encoding="utf-8"?>
<!-- Generator: Adobe Illustrator 22.0.1, SVG Export Plug-In . SVG Version: 6.00 Build 0)  -->
<svg version="1.1" id="Layer_1" xmlns="http://www.w3.org/2000/svg" xmlns:xlink="http://www.w3.org/1999/xlink" x="0px" y="0px"
	 viewBox="0 0 1922 694" style="enable-background:new 0 0 1922 694;" xml:space="preserve">
<style type="text/css">
	.st0{fill:#00447C;}
	.st1{opacity:0.1;}
	.st2{fill:#FFFFFF;}
	.st3{fill:#22BBFF;}
</style>
<g>
	<rect class="st0" width="1922" height="698"/>
</g>
<g class="st1">
	<path class="st2" d="M346.8,312.8c-0.2,0-0.4,0-0.5-0.1l-20.6-7.3c-0.5-0.2-1-0.8-1-1.3v-21c0-0.6,0.4-1.2,0.9-1.4l15.3-5.7
		c0.1,0,0.3-0.1,0.4-0.1c0.6,0,1,0.5,1,1.1v3.6h15.1c0.7,0,1.2,0.5,1.2,1.2V304c0,0.5-0.3,1.1-0.7,1.4l-10.2,7
		C347.5,312.7,347.2,312.8,346.8,312.8z"/>
	<path class="st2" d="M346.8,541c-0.2,0-0.4,0-0.5-0.1l-20.6-7.3c-0.5-0.2-1-0.8-1-1.3v-21c0-0.6,0.4-1.2,0.9-1.4l15.3-5.7
		c0.1,0,0.3-0.1,0.4-0.1c0.6,0,1,0.5,1,1.1v3.6h15.1c0.7,0,1.2,0.5,1.2,1.2v22.2c0,0.5-0.3,1.1-0.7,1.4l-10.2,7
		C347.5,540.9,347.2,541,346.8,541z"/>
	<g>
		<path class="st3" d="M225.2,292.6l-7.4-12.7l-7.4,12.7c-0.9,1.4-1.4,3-1.4,4.7c0,4.8,3.9,8.7,8.7,8.7s8.7-3.9,8.7-8.7
			C226.5,295.6,226,293.9,225.2,292.6z"/>
	</g>
	<g>
		<path class="st3" d="M351.4,180.1l-8.7-15l-8.7,15c-1,1.6-1.6,3.5-1.6,5.5c0,5.7,4.6,10.3,10.3,10.3c5.7,0,10.3-4.6,10.3-10.3
			C353,183.6,352.4,181.7,351.4,180.1z"/>
	</g>
	<g>
		<path class="st3" d="M227.2,521.4l-8.7-15l-8.7,15c-1,1.6-1.6,3.5-1.6,5.5c0,5.7,4.6,10.3,10.3,10.3s10.3-4.6,10.3-10.3
			C228.8,524.9,228.2,523,227.2,521.4z"/>
	</g>
	<g>
		<path class="st3" d="M601.4,521.4l-8.7-15l-8.7,15c-1,1.6-1.6,3.5-1.6,5.5c0,5.7,4.6,10.3,10.3,10.3s10.3-4.6,10.3-10.3
			C603,524.9,602.5,523,601.4,521.4z"/>
	</g>
	<g>
		<path class="st3" d="M345.9,68.7l-8.7-15l-8.7,15c-1,1.6-1.6,3.5-1.6,5.5c0,5.7,4.6,10.3,10.3,10.3c5.7,0,10.3-4.6,10.3-10.3
			C347.5,72.2,346.9,70.3,345.9,68.7z"/>
	</g>
	<g>
		<path class="st2" d="M224,198.5l-15.9-15.9c-0.7-0.7-1.1-1.7-1.1-2.8s0.4-2,1.1-2.8l15.9-15.9l5.5,5.5l-13.2,13.2l13.2,13.2
			L224,198.5z"/>
	</g>
	<g>
		<path class="st2" d="M348.2,426.7l-15.9-15.9c-0.7-0.7-1.1-1.7-1.1-2.8c0-1,0.4-2,1.1-2.8l15.9-15.9l5.5,5.5L340.5,408l13.2,13.2
			L348.2,426.7z"/>
	</g>
	<g>
		<path class="st2" d="M720.6,541.7l-15.9-15.9c-0.7-0.7-1.1-1.7-1.1-2.8s0.4-2,1.1-2.8l15.9-15.9l5.5,5.5L712.9,523l13.2,13.2
			L720.6,541.7z"/>
	</g>
	<g>
		<g>
			<path class="st3" d="M212.6,425.9l-5.5-5.5l12.2-12.2L207,396l5.5-5.5l14.9,14.9c0.7,0.7,1.1,1.7,1.1,2.8c0,1-0.4,2-1.1,2.8
				L212.6,425.9z"/>
		</g>
	</g>
	<g>
		<path class="st3" d="M464.3,177.6l-7.4-12.7l-7.4,12.7c-0.9,1.4-1.4,3-1.4,4.7c0,4.8,3.9,8.7,8.7,8.7c4.8,0,8.7-3.9,8.7-8.7
			C465.6,180.6,465.1,178.9,464.3,177.6z"/>
	</g>
	<g>
		<path class="st3" d="M466.4,406.4l-8.7-15l-8.7,15c-1,1.6-1.6,3.5-1.6,5.5c0,5.7,4.6,10.3,10.3,10.3c5.7,0,10.3-4.6,10.3-10.3
			C468,409.9,467.4,408,466.4,406.4z"/>
	</g>
	<g>
		<path class="st2" d="M463.2,86.3l-15.9-15.9c-0.7-0.7-1.1-1.7-1.1-2.8s0.4-2,1.1-2.8L463.2,49l5.5,5.5l-13.2,13.2l13.2,13.2
			L463.2,86.3z"/>
	</g>
	<g>
		<g>
			<path class="st3" d="M451.7,310.9l-5.5-5.5l12.2-12.2L446.2,281l5.5-5.5l14.9,14.9c0.7,0.7,1.1,1.7,1.1,2.8c0,1-0.4,2-1.1,2.8
				L451.7,310.9z"/>
		</g>
	</g>
	<path class="st2" d="M1343.5,312.8c-0.2,0-0.4,0-0.5-0.1l-20.6-7.3c-0.5-0.2-1-0.8-1-1.3v-21c0-0.6,0.4-1.2,0.9-1.4l15.3-5.7
		c0.1,0,0.3-0.1,0.4-0.1c0.6,0,1,0.5,1,1.1v3.6h15.1c0.7,0,1.2,0.5,1.2,1.2V304c0,0.5-0.3,1.1-0.7,1.4l-10.2,7
		C1344.2,312.7,1343.8,312.8,1343.5,312.8z"/>
	<path class="st2" d="M1343.5,541c-0.2,0-0.4,0-0.5-0.1l-20.6-7.3c-0.5-0.2-1-0.8-1-1.3v-21c0-0.6,0.4-1.2,0.9-1.4l15.3-5.7
		c0.1,0,0.3-0.1,0.4-0.1c0.6,0,1,0.5,1,1.1v3.6h15.1c0.7,0,1.2,0.5,1.2,1.2v22.2c0,0.5-0.3,1.1-0.7,1.4l-10.2,7
		C1344.2,540.9,1343.8,541,1343.5,541z"/>
	<g>
		<path class="st3" d="M1221.8,292.6l-7.4-12.7l-7.4,12.7c-0.9,1.4-1.4,3-1.4,4.7c0,4.8,3.9,8.7,8.7,8.7c4.8,0,8.7-3.9,8.7-8.7
			C1223.2,295.6,1222.7,293.9,1221.8,292.6z"/>
	</g>
	<g>
		<path class="st3" d="M1348,180.1l-8.7-15l-8.7,15c-1,1.6-1.6,3.5-1.6,5.5c0,5.7,4.6,10.3,10.3,10.3c5.7,0,10.3-4.6,10.3-10.3
			C1349.6,183.6,1349,181.7,1348,180.1z"/>
	</g>
	<g>
		<path class="st3" d="M1223.9,521.4l-8.7-15l-8.7,15c-1,1.6-1.6,3.5-1.6,5.5c0,5.7,4.6,10.3,10.3,10.3c5.7,0,10.3-4.6,10.3-10.3
			C1225.5,524.9,1224.9,523,1223.9,521.4z"/>
	</g>
	<g>
		<path class="st2" d="M1220.7,198.5l-15.9-15.9c-0.7-0.7-1.1-1.7-1.1-2.8s0.4-2,1.1-2.8l15.9-15.9l5.5,5.5l-13.2,13.2l13.2,13.2
			L1220.7,198.5z"/>
	</g>
	<g>
		<path class="st2" d="M1344.8,426.7l-15.9-15.9c-0.7-0.7-1.1-1.7-1.1-2.8c0-1,0.4-2,1.1-2.8l15.9-15.9l5.5,5.5l-13.2,13.2
			l13.2,13.2L1344.8,426.7z"/>
	</g>
	<g>
		<g>
			<path class="st3" d="M1209.2,425.9l-5.5-5.5l12.2-12.2l-12.2-12.2l5.5-5.5l14.9,14.9c0.7,0.7,1.1,1.7,1.1,2.8c0,1-0.4,2-1.1,2.8
				L1209.2,425.9z"/>
		</g>
	</g>
	<g>
		<path class="st2" d="M1344.8,87.2l-15.9-15.9c-0.7-0.7-1.1-1.7-1.1-2.8c0-1,0.4-2,1.1-2.8l15.9-15.9l5.5,5.5l-13.2,13.2l13.2,13.2
			L1344.8,87.2z"/>
	</g>
	<path class="st2" d="M589.6,312.8c-0.2,0-0.4,0-0.5-0.1l-20.6-7.3c-0.5-0.2-1-0.8-1-1.3v-21c0-0.6,0.4-1.2,0.9-1.4l15.3-5.7
		c0.1,0,0.3-0.1,0.4-0.1c0.6,0,1,0.5,1,1.1v3.6h15.1c0.7,0,1.2,0.5,1.2,1.2V304c0,0.5-0.3,1.1-0.7,1.4l-10.2,7
		C590.3,312.7,589.9,312.8,589.6,312.8z"/>
	<g>
		<path class="st3" d="M594.1,180.1l-8.7-15l-8.7,15c-1,1.6-1.6,3.5-1.6,5.5c0,5.7,4.6,10.3,10.3,10.3s10.3-4.6,10.3-10.3
			C595.7,183.6,595.1,181.7,594.1,180.1z"/>
	</g>
	<g>
		<path class="st2" d="M591,426.7l-16-15.9c-0.7-0.7-1.1-1.7-1.1-2.8c0-1,0.4-2,1.1-2.8l15.9-15.9l5.5,5.5L583.3,408l13.2,13.2
			L591,426.7z"/>
	</g>
	<g>
		<path class="st2" d="M591,87.2l-16-16c-0.7-0.7-1.1-1.7-1.1-2.8c0-1,0.4-2,1.1-2.8l16-15.8l5.5,5.5l-13.2,13.2l13.2,13.2L591,87.2
			z"/>
	</g>
	<g>
		<g>
			<path class="st3" d="M1209.2,86.3l-5.5-5.5l12.2-12.2l-12.2-12.2l5.5-5.5l14.9,14.9c0.7,0.7,1.1,1.7,1.1,2.8c0,1-0.4,2-1.1,2.8
				L1209.2,86.3z"/>
		</g>
	</g>
	<g>
		<path class="st3" d="M1593.5,197.8c-0.2,0-0.4,0-0.5-0.1l-20.6-7.3c-0.5-0.2-1-0.8-1-1.3v-21c0-0.6,0.4-1.2,0.9-1.4l15.3-5.7
			c0.1,0,0.3-0.1,0.4-0.1c0.6,0,1,0.5,1,1.1v3.6h15.1c0.7,0,1.2,0.5,1.2,1.2V189c0,0.5-0.3,1.1-0.7,1.4l-10.2,7
			C1594.3,197.7,1593.9,197.8,1593.5,197.8z"/>
	</g>
	<path class="st2" d="M1593.5,426c-0.2,0-0.4,0-0.5-0.1l-20.6-7.3c-0.5-0.2-1-0.8-1-1.3v-21c0-0.6,0.4-1.2,0.9-1.4l15.3-5.7
		c0.1,0,0.3-0.1,0.4-0.1c0.6,0,1,0.5,1,1.1v3.6h15.1c0.7,0,1.2,0.5,1.2,1.2v22.2c0,0.5-0.3,1.1-0.7,1.4l-10.2,7
		C1594.3,425.9,1593.9,426,1593.5,426z"/>
	<g>
		<path class="st3" d="M1471.9,177.6l-7.4-12.7l-7.4,12.7c-0.9,1.4-1.4,3-1.4,4.7c0,4.8,3.9,8.7,8.7,8.7c4.8,0,8.7-3.9,8.7-8.7
			C1473.3,180.6,1472.8,178.9,1471.9,177.6z"/>
	</g>
	<g>
		<path class="st3" d="M1598.1,65.1l-8.7-15l-8.7,15c-1,1.6-1.6,3.5-1.6,5.5c0,5.7,4.6,10.3,10.3,10.3c5.7,0,10.3-4.6,10.3-10.3
			C1599.7,68.6,1599.1,66.7,1598.1,65.1z"/>
	</g>
	<g>
		<path class="st3" d="M1474,406.4l-8.7-15l-8.7,15c-1,1.6-1.6,3.5-1.6,5.5c0,5.7,4.6,10.3,10.3,10.3c5.7,0,10.3-4.6,10.3-10.3
			C1475.6,409.9,1475,408,1474,406.4z"/>
	</g>
	<g>
		<path class="st2" d="M1470.8,83.5l-15.9-15.9c-0.7-0.7-1.1-1.7-1.1-2.8c0-1,0.4-2,1.1-2.8l15.9-15.9l5.5,5.5l-13.2,13.2l13.2,13.2
			L1470.8,83.5z"/>
	</g>
	<g>
		<path class="st2" d="M1594.9,311.7l-15.9-15.9c-0.7-0.7-1.1-1.7-1.1-2.8s0.4-2,1.1-2.8l15.9-15.9l5.5,5.5l-13.2,13.2l13.2,13.2
			L1594.9,311.7z"/>
	</g>
	<g>
		<g>
			<path class="st3" d="M1459.3,310.9l-5.5-5.5l12.2-12.2l-12.2-12.2l5.5-5.5l14.9,14.9c0.7,0.7,1.1,1.7,1.1,2.8c0,1-0.4,2-1.1,2.8
				L1459.3,310.9z"/>
		</g>
	</g>
	<path class="st2" d="M839.6,312.8c-0.2,0-0.4,0-0.5-0.1l-20.6-7.3c-0.5-0.2-1-0.8-1-1.3v-21c0-0.6,0.4-1.2,0.9-1.4l15.3-5.7
		c0.1,0,0.3-0.1,0.4-0.1c0.6,0,1,0.5,1,1.1v3.6h15.1c0.7,0,1.2,0.5,1.2,1.2V304c0,0.5-0.3,1.1-0.7,1.4l-10.2,7
		C840.4,312.7,840,312.8,839.6,312.8z"/>
	<g>
		<path class="st3" d="M718,292.6l-7.4-12.7l-7.4,12.7c-0.9,1.4-1.4,3-1.4,4.7c0,4.8,3.9,8.7,8.7,8.7s8.7-3.9,8.7-8.7
			C719.4,295.6,718.9,293.9,718,292.6z"/>
	</g>
	<g>
		<path class="st3" d="M844.2,180.1l-8.7-15l-8.7,15c-1,1.6-1.6,3.5-1.6,5.5c0,5.7,4.6,10.3,10.3,10.3s10.3-4.6,10.3-10.3
			C845.8,183.6,845.2,181.7,844.2,180.1z"/>
	</g>
	<g>
		<path class="st2" d="M716.9,198.5L701,182.6c-0.7-0.7-1.1-1.7-1.1-2.8s0.4-2,1.1-2.8l15.9-15.9l5.5,5.5l-13.2,13.2l13.2,13.2
			L716.9,198.5z"/>
	</g>
	<g>
		<path class="st2" d="M841,426.7l-15.9-15.9c-0.7-0.7-1.1-1.7-1.1-2.8c0-1,0.4-2,1.1-2.8l15.9-15.9l5.5,5.5L833.4,408l13.2,13.2
			L841,426.7z"/>
	</g>
	<g>
		<g>
			<path class="st3" d="M705.4,425.9l-5.5-5.5l12.2-12.2L699.9,396l5.5-5.5l14.9,14.9c0.7,0.7,1.1,1.7,1.1,2.8c0,1-0.4,2-1.1,2.8
				L705.4,425.9z"/>
		</g>
	</g>
	<g>
		<path class="st2" d="M841,87.2l-15.9-15.9c-0.7-0.7-1.1-1.7-1.1-2.8c0-1,0.4-2,1.1-2.8L841,49.8l5.5,5.5l-13.2,13.2l13.2,13.2
			L841,87.2z"/>
	</g>
	<g>
		<g>
			<path class="st3" d="M705.4,86.3l-5.5-5.5l12.2-12.2l-12.2-12.2l5.5-5.5l14.9,14.9c0.7,0.7,1.1,1.7,1.1,2.8c0,1-0.4,2-1.1,2.8
				L705.4,86.3z"/>
		</g>
	</g>
	<g>
		<path class="st3" d="M1089.7,197.8c-0.2,0-0.4,0-0.5-0.1l-20.6-7.3c-0.5-0.2-1-0.8-1-1.3v-21c0-0.6,0.4-1.2,0.9-1.4l15.3-5.7
			c0.1,0,0.3-0.1,0.4-0.1c0.6,0,1,0.5,1,1.1v3.6h15.1c0.7,0,1.2,0.5,1.2,1.2V189c0,0.5-0.3,1.1-0.7,1.4l-10.2,7
			C1090.5,197.7,1090.1,197.8,1089.7,197.8z"/>
	</g>
	<path class="st2" d="M1089.7,426c-0.2,0-0.4,0-0.5-0.1l-20.6-7.3c-0.5-0.2-1-0.8-1-1.3v-21c0-0.6,0.4-1.2,0.9-1.4l15.3-5.7
		c0.1,0,0.3-0.1,0.4-0.1c0.6,0,1,0.5,1,1.1v3.6h15.1c0.7,0,1.2,0.5,1.2,1.2v22.2c0,0.5-0.3,1.1-0.7,1.4l-10.2,7
		C1090.5,425.9,1090.1,426,1089.7,426z"/>
	<g>
		<path class="st3" d="M968.1,177.6l-7.4-12.7l-7.4,12.7c-0.9,1.4-1.4,3-1.4,4.7c0,4.8,3.9,8.7,8.7,8.7s8.7-3.9,8.7-8.7
			C969.5,180.6,969,178.9,968.1,177.6z"/>
	</g>
	<g>
		<path class="st3" d="M1094.3,65.1l-8.7-15l-8.7,15c-1,1.6-1.6,3.5-1.6,5.5c0,5.7,4.6,10.3,10.3,10.3c5.7,0,10.3-4.6,10.3-10.3
			C1095.9,68.6,1095.3,66.7,1094.3,65.1z"/>
	</g>
	<g>
		<path class="st3" d="M970.2,406.4l-8.7-15l-8.7,15c-1,1.6-1.6,3.5-1.6,5.5c0,5.7,4.6,10.3,10.3,10.3s10.3-4.6,10.3-10.3
			C971.8,409.9,971.2,408,970.2,406.4z"/>
	</g>
	<g>
		<path class="st2" d="M967,83.5l-15.9-15.9c-0.7-0.7-1.1-1.7-1.1-2.8c0-1,0.4-2,1.1-2.8L967,46.2l5.5,5.5l-13.2,13.2L972.5,78
			L967,83.5z"/>
	</g>
	<g>
		<path class="st2" d="M1091.1,311.7l-15.9-15.9c-0.7-0.7-1.1-1.7-1.1-2.8s0.4-2,1.1-2.8l15.9-15.9l5.5,5.5l-13.2,13.2l13.2,13.2
			L1091.1,311.7z"/>
	</g>
	<g>
		<g>
			<path class="st3" d="M955.5,310.9l-5.5-5.5l12.2-12.2L950,281l5.5-5.5l14.9,14.9c0.7,0.7,1.1,1.7,1.1,2.8c0,1-0.4,2-1.1,2.8
				L955.5,310.9z"/>
		</g>
	</g>
	<g>
		<g>
			<path class="st3" d="M460.8,540.9l-5.5-5.5l12.2-12.2L455.3,511l5.5-5.5l14.9,14.9c0.7,0.7,1.1,1.7,1.1,2.8s-0.4,2-1.1,2.8
				L460.8,540.9z"/>
		</g>
	</g>
	<g>
		<g>
			<path class="st3" d="M212.6,86.3l-5.5-5.5l12.2-12.2L207,56.5l5.5-5.5l14.9,14.9c0.7,0.7,1.1,1.7,1.1,2.8c0,1-0.4,2-1.1,2.8
				L212.6,86.3z"/>
		</g>
	</g>
	<path class="st2" d="M1593.5,656c-0.2,0-0.4,0-0.5-0.1l-20.6-7.3c-0.5-0.2-1-0.8-1-1.3v-21c0-0.6,0.4-1.2,0.9-1.4l15.3-5.7
		c0.1,0,0.3-0.1,0.4-0.1c0.6,0,1,0.5,1,1.1v3.6h15.1c0.7,0,1.2,0.5,1.2,1.2v22.2c0,0.5-0.3,1.1-0.7,1.4l-10.2,7
		C1594.3,655.9,1593.9,656,1593.5,656z"/>
	<path class="st2" d="M846.9,539.2c-0.2,0-0.4,0-0.5-0.1l-20.6-7.3c-0.5-0.2-1-0.8-1-1.3v-21c0-0.6,0.4-1.2,0.9-1.4l15.3-5.7
		c0.1,0,0.3-0.1,0.4-0.1c0.6,0,1,0.5,1,1.1v3.6h15.1c0.7,0,1.2,0.5,1.2,1.2v22.2c0,0.5-0.3,1.1-0.7,1.4l-10.2,7
		C847.7,539.1,847.3,539.2,846.9,539.2z"/>
	<g>
		<path class="st3" d="M1471.9,635.8l-7.4-12.7l-7.4,12.7c-0.9,1.4-1.4,3-1.4,4.7c0,4.8,3.9,8.7,8.7,8.7c4.8,0,8.7-3.9,8.7-8.7
			C1473.3,638.7,1472.8,637.1,1471.9,635.8z"/>
	</g>
	<g>
		<path class="st3" d="M1598.1,523.3l-8.7-15l-8.7,15c-1,1.6-1.6,3.5-1.6,5.5c0,5.7,4.6,10.3,10.3,10.3c5.7,0,10.3-4.6,10.3-10.3
			C1599.7,526.8,1599.1,524.9,1598.1,523.3z"/>
	</g>
	<g>
		<path class="st2" d="M1470.8,541.7l-15.9-15.9c-0.7-0.7-1.1-1.7-1.1-2.8s0.4-2,1.1-2.8l15.9-15.9l5.5,5.5l-13.2,13.2l13.2,13.2
			L1470.8,541.7z"/>
	</g>
	<path class="st2" d="M100.4,82.8c-0.2,0-0.4,0-0.5-0.1l-20.6-7.3c-0.5-0.2-1-0.8-1-1.3v-21c0-0.6,0.4-1.2,0.9-1.4L94.5,46
		c0.1,0,0.3-0.1,0.4-0.1c0.6,0,1,0.5,1,1.1v3.6H111c0.7,0,1.2,0.5,1.2,1.2V74c0,0.5-0.3,1.1-0.7,1.4l-10.2,7
		C101.1,82.7,100.7,82.8,100.4,82.8z"/>
	<path class="st2" d="M100.4,312.8c-0.2,0-0.4,0-0.5-0.1l-20.6-7.3c-0.5-0.2-1-0.8-1-1.3v-21c0-0.6,0.4-1.2,0.9-1.4l15.3-5.7
		c0.1,0,0.3-0.1,0.4-0.1c0.6,0,1,0.5,1,1.1v3.6H111c0.7,0,1.2,0.5,1.2,1.2V304c0,0.5-0.3,1.1-0.7,1.4l-10.2,7
		C101.1,312.7,100.7,312.8,100.4,312.8z"/>
	<path class="st2" d="M100.4,541c-0.2,0-0.4,0-0.5-0.1l-20.6-7.3c-0.5-0.2-1-0.8-1-1.3v-21c0-0.6,0.4-1.2,0.9-1.4l15.3-5.7
		c0.1,0,0.3-0.1,0.4-0.1c0.6,0,1,0.5,1,1.1v3.6H111c0.7,0,1.2,0.5,1.2,1.2v22.2c0,0.5-0.3,1.1-0.7,1.4l-10.2,7
		C101.1,540.9,100.7,541,100.4,541z"/>
	<g>
		<path class="st3" d="M104.9,180.1l-8.7-15l-8.7,15c-1,1.6-1.6,3.5-1.6,5.5c0,5.7,4.6,10.3,10.3,10.3c5.7,0,10.3-4.6,10.3-10.3
			C106.5,183.6,105.9,181.7,104.9,180.1z"/>
	</g>
	<g>
		<path class="st2" d="M101.7,426.7l-15.9-15.9c-0.7-0.7-1.1-1.7-1.1-2.8c0-1,0.4-2,1.1-2.8l15.9-15.9l5.5,5.5L94.1,408l13.2,13.2
			L101.7,426.7z"/>
	</g>
	<g>
		<path class="st2" d="M1096.6,538l-15.9-15.9c-0.7-0.7-1.1-1.7-1.1-2.8s0.4-2,1.1-2.8l15.9-15.9l5.5,5.5l-13.2,13.2l13.2,13.2
			L1096.6,538z"/>
	</g>
	<g>
		<g>
			<path class="st3" d="M961,537.2l-5.5-5.5l12.2-12.2l-12.2-12.2l5.5-5.5l14.9,14.9c0.7,0.7,1.1,1.7,1.1,2.8s-0.4,2-1.1,2.8
				L961,537.2z"/>
		</g>
	</g>
	<path class="st2" d="M222.7,648.7c-0.2,0-0.4,0-0.5-0.1l-20.6-7.3c-0.5-0.2-1-0.8-1-1.3v-21c0-0.6,0.4-1.2,0.9-1.4l15.3-5.7
		c0.1,0,0.3-0.1,0.4-0.1c0.6,0,1,0.5,1,1.1v3.6h15.1c0.7,0,1.2,0.5,1.2,1.2V640c0,0.5-0.3,1.1-0.7,1.4l-10.2,7
		C223.5,648.6,223.1,648.7,222.7,648.7z"/>
	<g>
		<path class="st3" d="M92.2,629.1l-8.7-15l-8.7,15c-1,1.6-1.6,3.5-1.6,5.5c0,5.7,4.6,10.3,10.3,10.3c5.7,0,10.3-4.6,10.3-10.3
			C93.8,632.6,93.2,630.7,92.2,629.1z"/>
	</g>
	<g>
		<path class="st3" d="M466.4,629.1l-8.7-15l-8.7,15c-1,1.6-1.6,3.5-1.6,5.5c0,5.7,4.6,10.3,10.3,10.3c5.7,0,10.3-4.6,10.3-10.3
			C468,632.6,467.4,630.7,466.4,629.1z"/>
	</g>
	<g>
		<path class="st2" d="M585.5,649.4l-15.9-15.9c-0.7-0.7-1.1-1.7-1.1-2.8s0.4-2,1.1-2.8l15.9-15.9l5.5,5.5l-13.2,13.2l13.2,13.2
			L585.5,649.4z"/>
	</g>
	<g>
		<g>
			<path class="st3" d="M325.7,648.6l-5.5-5.5l12.2-12.2l-12.2-12.2l5.5-5.5l14.9,14.9c0.7,0.7,1.1,1.7,1.1,2.8c0,1-0.4,2-1.1,2.8
				L325.7,648.6z"/>
		</g>
	</g>
	<path class="st2" d="M1217.5,648.7c-0.2,0-0.4,0-0.5-0.1l-20.6-7.3c-0.5-0.2-1-0.8-1-1.3v-21c0-0.6,0.4-1.2,0.9-1.4l15.3-5.7
		c0.1,0,0.3-0.1,0.4-0.1c0.6,0,1,0.5,1,1.1v3.6h15.1c0.7,0,1.2,0.5,1.2,1.2V640c0,0.5-0.3,1.1-0.7,1.4l-10.2,7
		C1218.2,648.6,1217.9,648.7,1217.5,648.7z"/>
	<g>
		<path class="st3" d="M1097.9,629.1l-8.7-15l-8.7,15c-1,1.6-1.6,3.5-1.6,5.5c0,5.7,4.6,10.3,10.3,10.3c5.7,0,10.3-4.6,10.3-10.3
			C1099.5,632.6,1099,630.7,1097.9,629.1z"/>
	</g>
	<g>
		<g>
			<path class="st3" d="M1331.5,648.6l-5.5-5.5l12.2-12.2l-12.2-12.2l5.5-5.5l14.9,14.9c0.7,0.7,1.1,1.7,1.1,2.8c0,1-0.4,2-1.1,2.8
				L1331.5,648.6z"/>
		</g>
	</g>
	<g>
		<path class="st3" d="M711.9,646.9c-0.2,0-0.4,0-0.5-0.1l-20.6-7.3c-0.5-0.2-1-0.8-1-1.3v-21c0-0.6,0.4-1.2,0.9-1.4l15.3-5.7
			c0.1,0,0.3-0.1,0.4-0.1c0.6,0,1,0.5,1,1.1v3.6h15.1c0.7,0,1.2,0.5,1.2,1.2v22.2c0,0.5-0.3,1.1-0.7,1.4l-10.2,7
			C712.6,646.8,712.2,646.9,711.9,646.9z"/>
	</g>
	<g>
		<path class="st2" d="M961.5,645.7l-15.9-15.9c-0.7-0.7-1.1-1.7-1.1-2.8c0-1,0.4-2,1.1-2.8l15.9-15.9l5.5,5.5L953.8,627l13.2,13.2
			L961.5,645.7z"/>
	</g>
	<g>
		<g>
			<path class="st3" d="M825.9,644.9l-5.5-5.5l12.2-12.2L820.4,615l5.5-5.5l14.9,14.9c0.7,0.7,1.1,1.7,1.1,2.8c0,1-0.4,2-1.1,2.8
				L825.9,644.9z"/>
		</g>
	</g>
</g>
<g class="st1">
	<g>
		<path class="st3" d="M1841.2,294.6l-7.4-12.7l-7.4,12.7c-0.9,1.4-1.4,3-1.4,4.7c0,4.8,3.9,8.7,8.7,8.7c4.8,0,8.7-3.9,8.7-8.7
			C1842.5,297.6,1842,295.9,1841.2,294.6z"/>
	</g>
	<g>
		<path class="st3" d="M1843.2,523.4l-8.7-15l-8.7,15c-1,1.6-1.6,3.5-1.6,5.5c0,5.7,4.6,10.3,10.3,10.3c5.7,0,10.3-4.6,10.3-10.3
			C1844.8,526.9,1844.2,525,1843.2,523.4z"/>
	</g>
	<g>
		<path class="st2" d="M1840,200.5l-15.9-15.9c-0.7-0.7-1.1-1.7-1.1-2.8s0.4-2,1.1-2.8l15.9-15.9l5.5,5.5l-13.2,13.2l13.2,13.2
			L1840,200.5z"/>
	</g>
	<g>
		<g>
			<path class="st3" d="M1828.6,427.9l-5.5-5.5l12.2-12.2L1823,398l5.5-5.5l14.9,14.9c0.7,0.7,1.1,1.7,1.1,2.8c0,1-0.4,2-1.1,2.8
				L1828.6,427.9z"/>
		</g>
	</g>
	<g>
		<g>
			<path class="st3" d="M1828.6,88.3l-5.5-5.5l12.2-12.2L1823,58.5l5.5-5.5l14.9,14.9c0.7,0.7,1.1,1.7,1.1,2.8c0,1-0.4,2-1.1,2.8
				L1828.6,88.3z"/>
		</g>
	</g>
	<path class="st2" d="M1716.4,84.8c-0.2,0-0.4,0-0.5-0.1l-20.6-7.3c-0.5-0.2-1-0.8-1-1.3v-21c0-0.6,0.4-1.2,0.9-1.4l15.3-5.7
		c0.1,0,0.3-0.1,0.4-0.1c0.6,0,1,0.5,1,1.1v3.6h15.1c0.7,0,1.2,0.5,1.2,1.2V76c0,0.5-0.3,1.1-0.7,1.4l-10.2,7
		C1717.1,84.7,1716.7,84.8,1716.4,84.8z"/>
	<path class="st2" d="M1716.4,314.8c-0.2,0-0.4,0-0.5-0.1l-20.6-7.3c-0.5-0.2-1-0.8-1-1.3v-21c0-0.6,0.4-1.2,0.9-1.4l15.3-5.7
		c0.1,0,0.3-0.1,0.4-0.1c0.6,0,1,0.5,1,1.1v3.6h15.1c0.7,0,1.2,0.5,1.2,1.2V306c0,0.5-0.3,1.1-0.7,1.4l-10.2,7
		C1717.1,314.7,1716.7,314.8,1716.4,314.8z"/>
	<path class="st2" d="M1716.4,543c-0.2,0-0.4,0-0.5-0.1l-20.6-7.3c-0.5-0.2-1-0.8-1-1.3v-21c0-0.6,0.4-1.2,0.9-1.4l15.3-5.7
		c0.1,0,0.3-0.1,0.4-0.1c0.6,0,1,0.5,1,1.1v3.6h15.1c0.7,0,1.2,0.5,1.2,1.2v22.2c0,0.5-0.3,1.1-0.7,1.4l-10.2,7
		C1717.1,542.9,1716.7,543,1716.4,543z"/>
	<g>
		<path class="st3" d="M1720.9,182.1l-8.7-15l-8.7,15c-1,1.6-1.6,3.5-1.6,5.5c0,5.7,4.6,10.3,10.3,10.3c5.7,0,10.3-4.6,10.3-10.3
			C1722.5,185.6,1721.9,183.7,1720.9,182.1z"/>
	</g>
	<g>
		<path class="st2" d="M1717.7,428.7l-15.9-15.9c-0.7-0.7-1.1-1.7-1.1-2.8c0-1,0.4-2,1.1-2.8l15.9-15.9l5.5,5.5L1710,410l13.2,13.2
			L1717.7,428.7z"/>
	</g>
	<path class="st2" d="M1839.7,650.7c-0.2,0-0.4,0-0.5-0.1l-20.6-7.3c-0.5-0.2-1-0.8-1-1.3v-21c0-0.6,0.4-1.2,0.9-1.4l15.3-5.7
		c0.1,0,0.3-0.1,0.4-0.1c0.6,0,1,0.5,1,1.1v3.6h15.1c0.7,0,1.2,0.5,1.2,1.2V642c0,0.5-0.3,1.1-0.7,1.4l-10.2,7
		C1840.5,650.6,1840.1,650.7,1839.7,650.7z"/>
	<g>
		<path class="st3" d="M1718.2,631.1l-8.7-15l-8.7,15c-1,1.6-1.6,3.5-1.6,5.5c0,5.7,4.6,10.3,10.3,10.3c5.7,0,10.3-4.6,10.3-10.3
			C1719.8,634.6,1719.2,632.7,1718.2,631.1z"/>
	</g>
</g>
</svg>
