<?xml version="1.0" encoding="utf-8"?>
<!-- Generator: Adobe Illustrator 22.0.1, SVG Export Plug-In . SVG Version: 6.00 Build 0)  -->
<svg version="1.1" id="Layer_1" xmlns="http://www.w3.org/2000/svg" xmlns:xlink="http://www.w3.org/1999/xlink" x="0px" y="0px"
	 viewBox="0 0 1929 570" style="enable-background:new 0 0 1929 570;" xml:space="preserve">
<style type="text/css">
	.st0{opacity:0.15;}
	.st1{fill:#00447C;}
	.st2{fill:#22BBFF;}
</style>
<g class="st0">
	<path class="st1" d="M346.6,291.9c-0.2,0-0.4,0-0.5-0.1l-20.6-7.3c-0.5-0.2-1-0.8-1-1.3v-21c0-0.6,0.4-1.2,0.9-1.4l15.3-5.7
		c0.1,0,0.3-0.1,0.4-0.1c0.6,0,1,0.5,1,1.1v3.6h15.1c0.7,0,1.2,0.5,1.2,1.2v22.3c0,0.5-0.3,1.1-0.7,1.4l-10.2,7
		C347.3,291.7,347,291.9,346.6,291.9z"/>
	<path class="st1" d="M346.6,520.1c-0.2,0-0.4,0-0.5-0.1l-20.6-7.3c-0.5-0.2-1-0.8-1-1.3v-21c0-0.6,0.4-1.2,0.9-1.4l15.3-5.7
		c0.1,0,0.3-0.1,0.4-0.1c0.6,0,1,0.5,1,1.1v3.6h15.1c0.7,0,1.2,0.5,1.2,1.2v22.3c0,0.5-0.3,1.1-0.7,1.4l-10.2,7
		C347.3,519.9,347,520.1,346.6,520.1z"/>
	<g>
		<path class="st2" d="M224.9,271.6l-7.4-12.7l-7.4,12.7c-0.9,1.4-1.4,3-1.4,4.7c0,4.8,3.9,8.7,8.7,8.7c4.8,0,8.7-3.9,8.7-8.7
			C226.3,274.6,225.8,273,224.9,271.6z"/>
	</g>
	<g>
		<path class="st2" d="M351.1,159.1l-8.7-15l-8.7,15c-1,1.6-1.6,3.5-1.6,5.5c0,5.7,4.6,10.3,10.3,10.3c5.7,0,10.3-4.6,10.3-10.3
			C352.8,162.6,352.2,160.7,351.1,159.1z"/>
	</g>
	<g>
		<path class="st2" d="M227,500.5l-8.7-15l-8.7,15c-1,1.6-1.6,3.5-1.6,5.5c0,5.7,4.6,10.3,10.3,10.3c5.7,0,10.3-4.6,10.3-10.3
			C228.6,504,228,502.1,227,500.5z"/>
	</g>
	<g>
		<path class="st2" d="M601.2,500.5l-8.7-15l-8.7,15c-1,1.6-1.6,3.5-1.6,5.5c0,5.7,4.6,10.3,10.3,10.3c5.7,0,10.3-4.6,10.3-10.3
			C602.9,504,602.3,502.1,601.2,500.5z"/>
	</g>
	<g>
		<path class="st2" d="M345.7,47.7l-8.7-15l-8.7,15c-1,1.6-1.6,3.5-1.6,5.5c0,5.7,4.6,10.3,10.3,10.3c5.7,0,10.3-4.6,10.3-10.3
			C347.3,51.2,346.7,49.3,345.7,47.7z"/>
	</g>
	<g>
		<path class="st1" d="M223.8,177.5l-15.9-15.9c-0.7-0.7-1.1-1.7-1.1-2.8s0.4-2,1.1-2.8l15.9-15.9l5.5,5.5l-13.2,13.2l13.2,13.2
			L223.8,177.5z"/>
	</g>
	<g>
		<path class="st1" d="M348,405.7L332,389.8c-0.7-0.7-1.1-1.7-1.1-2.8c0-1,0.4-2,1.1-2.8l15.9-15.9l5.5,5.5L340.3,387l13.2,13.2
			L348,405.7z"/>
	</g>
	<g>
		<path class="st1" d="M720.4,520.7l-15.9-15.9c-0.7-0.7-1.1-1.7-1.1-2.8s0.4-2,1.1-2.8l15.9-15.9l5.5,5.5l-13.2,13.2l13.2,13.2
			L720.4,520.7z"/>
	</g>
	<g>
		<g>
			<path class="st2" d="M212.3,404.9l-5.5-5.5l12.2-12.2L206.8,375l5.5-5.5l14.9,14.9c0.7,0.7,1.1,1.7,1.1,2.8s-0.4,2-1.1,2.8
				L212.3,404.9z"/>
		</g>
	</g>
	<g>
		<path class="st2" d="M464.1,156.6l-7.4-12.7l-7.4,12.7c-0.9,1.4-1.4,3-1.4,4.7c0,4.8,3.9,8.7,8.7,8.7c4.8,0,8.7-3.9,8.7-8.7
			C465.4,159.6,464.9,158,464.1,156.6z"/>
	</g>
	<g>
		<path class="st2" d="M466.2,385.5l-8.7-15l-8.7,15c-1,1.6-1.6,3.5-1.6,5.5c0,5.7,4.6,10.3,10.3,10.3c5.7,0,10.3-4.6,10.3-10.3
			C467.8,389,467.2,387.1,466.2,385.5z"/>
	</g>
	<g>
		<path class="st1" d="M463,65.4l-15.9-15.9c-0.7-0.7-1.1-1.7-1.1-2.8s0.4-2,1.1-2.8L463,28l5.5,5.5l-13.2,13.2l13.2,13.2L463,65.4z
			"/>
	</g>
	<g>
		<g>
			<path class="st2" d="M451.5,289.9l-5.5-5.5l12.2-12.2L446,260l5.5-5.5l14.9,14.9c0.7,0.7,1.1,1.7,1.1,2.8s-0.4,2-1.1,2.8
				L451.5,289.9z"/>
		</g>
	</g>
	<path class="st1" d="M1343.3,291.9c-0.2,0-0.4,0-0.5-0.1l-20.6-7.3c-0.5-0.2-1-0.8-1-1.3v-21c0-0.6,0.4-1.2,0.9-1.4l15.3-5.7
		c0.1,0,0.3-0.1,0.4-0.1c0.6,0,1,0.5,1,1.1v3.6h15.1c0.7,0,1.2,0.5,1.2,1.2v22.3c0,0.5-0.3,1.1-0.7,1.4l-10.2,7
		C1344.1,291.7,1343.7,291.9,1343.3,291.9z"/>
	<path class="st1" d="M1343.3,520.1c-0.2,0-0.4,0-0.5-0.1l-20.6-7.3c-0.5-0.2-1-0.8-1-1.3v-21c0-0.6,0.4-1.2,0.9-1.4l15.3-5.7
		c0.1,0,0.3-0.1,0.4-0.1c0.6,0,1,0.5,1,1.1v3.6h15.1c0.7,0,1.2,0.5,1.2,1.2v22.3c0,0.5-0.3,1.1-0.7,1.4l-10.2,7
		C1344.1,519.9,1343.7,520.1,1343.3,520.1z"/>
	<g>
		<path class="st2" d="M1221.7,271.6l-7.4-12.7l-7.4,12.7c-0.9,1.4-1.4,3-1.4,4.7c0,4.8,3.9,8.7,8.7,8.7c4.8,0,8.7-3.9,8.7-8.7
			C1223.1,274.6,1222.6,273,1221.7,271.6z"/>
	</g>
	<g>
		<path class="st2" d="M1347.9,159.1l-8.7-15l-8.7,15c-1,1.6-1.6,3.5-1.6,5.5c0,5.7,4.6,10.3,10.3,10.3c5.7,0,10.3-4.6,10.3-10.3
			C1349.5,162.6,1348.9,160.7,1347.9,159.1z"/>
	</g>
	<g>
		<path class="st2" d="M1223.8,500.5l-8.7-15l-8.7,15c-1,1.6-1.6,3.5-1.6,5.5c0,5.7,4.6,10.3,10.3,10.3c5.7,0,10.3-4.6,10.3-10.3
			C1225.4,504,1224.8,502.1,1223.8,500.5z"/>
	</g>
	<g>
		<path class="st1" d="M1220.6,177.5l-15.9-15.9c-0.7-0.7-1.1-1.7-1.1-2.8s0.4-2,1.1-2.8l15.9-15.9l5.5,5.5l-13.2,13.2l13.2,13.2
			L1220.6,177.5z"/>
	</g>
	<g>
		<path class="st1" d="M1344.7,405.7l-15.9-15.9c-0.7-0.7-1.1-1.7-1.1-2.8c0-1,0.4-2,1.1-2.8l15.9-15.9l5.5,5.5l-13.2,13.2
			l13.2,13.2L1344.7,405.7z"/>
	</g>
	<g>
		<g>
			<path class="st2" d="M1209.1,404.9l-5.5-5.5l12.2-12.2l-12.2-12.2l5.5-5.5l14.9,14.9c0.7,0.7,1.1,1.7,1.1,2.8s-0.4,2-1.1,2.8
				L1209.1,404.9z"/>
		</g>
	</g>
	<g>
		<path class="st1" d="M1344.7,66.2l-15.9-15.9c-0.7-0.7-1.1-1.7-1.1-2.8s0.4-2,1.1-2.8l15.9-15.9l5.5,5.5l-13.2,13.2l13.2,13.2
			L1344.7,66.2z"/>
	</g>
	<path class="st1" d="M589.4,291.9c-0.2,0-0.4,0-0.5-0.1l-20.6-7.3c-0.5-0.2-1-0.8-1-1.3v-21c0-0.6,0.4-1.2,0.9-1.4l15.3-5.7
		c0.1,0,0.3-0.1,0.4-0.1c0.6,0,1,0.5,1,1.1v3.6h15.1c0.7,0,1.2,0.5,1.2,1.2v22.3c0,0.5-0.3,1.1-0.7,1.4l-10.2,7
		C590.1,291.7,589.8,291.9,589.4,291.9z"/>
	<g>
		<path class="st2" d="M593.9,159.1l-8.7-15l-8.7,15c-1,1.6-1.6,3.5-1.6,5.5c0,5.7,4.6,10.3,10.3,10.3c5.7,0,10.3-4.6,10.3-10.3
			C595.6,162.6,595,160.7,593.9,159.1z"/>
	</g>
	<g>
		<path class="st1" d="M590.8,405.7l-15.9-15.9c-0.7-0.7-1.1-1.7-1.1-2.8c0-1,0.4-2,1.1-2.8l15.9-15.9l5.5,5.5L583.1,387l13.2,13.2
			L590.8,405.7z"/>
	</g>
	<g>
		<path class="st1" d="M590.8,66.2l-15.9-15.9c-0.7-0.7-1.1-1.7-1.1-2.8s0.4-2,1.1-2.8l15.9-15.9l5.5,5.5l-13.2,13.2l13.2,13.2
			L590.8,66.2z"/>
	</g>
	<g>
		<g>
			<path class="st2" d="M1209.1,65.4l-5.5-5.5l12.2-12.2l-12.2-12.2l5.5-5.5l14.9,14.9c0.7,0.7,1.1,1.7,1.1,2.8c0,1-0.4,2-1.1,2.8
				L1209.1,65.4z"/>
		</g>
	</g>
	<g>
		<path class="st2" d="M1593.4,176.8c-0.2,0-0.4,0-0.5-0.1l-20.6-7.3c-0.5-0.2-1-0.8-1-1.3v-21c0-0.6,0.4-1.2,0.9-1.4l15.3-5.7
			c0.1,0,0.3-0.1,0.4-0.1c0.6,0,1,0.5,1,1.1v3.6h15.1c0.7,0,1.2,0.5,1.2,1.2v22.3c0,0.5-0.3,1.1-0.7,1.4l-10.2,7
			C1594.2,176.7,1593.8,176.8,1593.4,176.8z"/>
	</g>
	<path class="st1" d="M1593.4,405c-0.2,0-0.4,0-0.5-0.1l-20.6-7.3c-0.5-0.2-1-0.8-1-1.4v-21c0-0.6,0.4-1.2,0.9-1.4l15.3-5.7
		c0.1,0,0.3-0.1,0.4-0.1c0.6,0,1,0.5,1,1.1v3.6h15.1c0.7,0,1.2,0.5,1.2,1.2v22.3c0,0.5-0.3,1.1-0.7,1.4l-10.2,7
		C1594.2,404.9,1593.8,405,1593.4,405z"/>
	<g>
		<path class="st2" d="M1471.8,156.6l-7.4-12.7l-7.4,12.7c-0.9,1.4-1.4,3-1.4,4.7c0,4.8,3.9,8.7,8.7,8.7c4.8,0,8.7-3.9,8.7-8.7
			C1473.2,159.6,1472.7,158,1471.8,156.6z"/>
	</g>
	<g>
		<path class="st2" d="M1598,44.1l-8.7-15l-8.7,15c-1,1.6-1.6,3.5-1.6,5.5c0,5.7,4.6,10.3,10.3,10.3c5.7,0,10.3-4.6,10.3-10.3
			C1599.6,47.6,1599,45.7,1598,44.1z"/>
	</g>
	<g>
		<path class="st2" d="M1473.9,385.5l-8.7-15l-8.7,15c-1,1.6-1.6,3.5-1.6,5.5c0,5.7,4.6,10.3,10.3,10.3c5.7,0,10.3-4.6,10.3-10.3
			C1475.5,389,1474.9,387.1,1473.9,385.5z"/>
	</g>
	<g>
		<path class="st1" d="M1470.7,62.5l-15.9-15.9c-0.7-0.7-1.1-1.7-1.1-2.8s0.4-2,1.1-2.8l15.9-15.9l5.5,5.5L1463,43.8l13.2,13.2
			L1470.7,62.5z"/>
	</g>
	<g>
		<path class="st1" d="M1594.8,290.7l-15.9-15.9c-0.7-0.7-1.1-1.7-1.1-2.8s0.4-2,1.1-2.8l15.9-15.9l5.5,5.5l-13.2,13.2l13.2,13.2
			L1594.8,290.7z"/>
	</g>
	<g>
		<g>
			<path class="st2" d="M1459.2,289.9l-5.5-5.5l12.2-12.2l-12.2-12.2l5.5-5.5l14.9,14.9c0.7,0.7,1.1,1.7,1.1,2.8s-0.4,2-1.1,2.8
				L1459.2,289.9z"/>
		</g>
	</g>
	<path class="st1" d="M839.5,291.9c-0.2,0-0.4,0-0.5-0.1l-20.6-7.3c-0.5-0.2-1-0.8-1-1.3v-21c0-0.6,0.4-1.2,0.9-1.4l15.3-5.7
		c0.1,0,0.3-0.1,0.4-0.1c0.6,0,1,0.5,1,1.1v3.6h15.1c0.7,0,1.2,0.5,1.2,1.2v22.3c0,0.5-0.3,1.1-0.7,1.4l-10.2,7
		C840.2,291.7,839.9,291.9,839.5,291.9z"/>
	<g>
		<path class="st2" d="M717.8,271.6l-7.4-12.7l-7.4,12.7c-0.9,1.4-1.4,3-1.4,4.7c0,4.8,3.9,8.7,8.7,8.7c4.8,0,8.7-3.9,8.7-8.7
			C719.2,274.6,718.7,273,717.8,271.6z"/>
	</g>
	<g>
		<path class="st2" d="M844,159.1l-8.7-15l-8.7,15c-1,1.6-1.6,3.5-1.6,5.5c0,5.7,4.6,10.3,10.3,10.3c5.7,0,10.3-4.6,10.3-10.3
			C845.7,162.6,845.1,160.7,844,159.1z"/>
	</g>
	<g>
		<path class="st1" d="M716.7,177.5l-15.9-15.9c-0.7-0.7-1.1-1.7-1.1-2.8s0.4-2,1.1-2.8l15.9-15.9l5.5,5.5l-13.2,13.2l13.2,13.2
			L716.7,177.5z"/>
	</g>
	<g>
		<path class="st1" d="M840.9,405.7L825,389.8c-0.7-0.7-1.1-1.7-1.1-2.8c0-1,0.4-2,1.1-2.8l15.9-15.9l5.5,5.5L833.2,387l13.2,13.2
			L840.9,405.7z"/>
	</g>
	<g>
		<g>
			<path class="st2" d="M705.2,404.9l-5.5-5.5l12.2-12.2L699.7,375l5.5-5.5l14.9,14.9c0.7,0.7,1.1,1.7,1.1,2.8s-0.4,2-1.1,2.8
				L705.2,404.9z"/>
		</g>
	</g>
	<g>
		<path class="st1" d="M840.9,66.2L825,50.2c-0.7-0.7-1.1-1.7-1.1-2.8s0.4-2,1.1-2.8l15.9-15.9l5.5,5.5l-13.2,13.2l13.2,13.2
			L840.9,66.2z"/>
	</g>
	<g>
		<g>
			<path class="st2" d="M705.2,65.4l-5.5-5.5l12.2-12.2l-12.2-12.2l5.5-5.5l14.9,14.9c0.7,0.7,1.1,1.7,1.1,2.8c0,1-0.4,2-1.1,2.8
				L705.2,65.4z"/>
		</g>
	</g>
	<g>
		<path class="st2" d="M1089.6,176.8c-0.2,0-0.4,0-0.5-0.1l-20.6-7.3c-0.5-0.2-1-0.8-1-1.3v-21c0-0.6,0.4-1.2,0.9-1.4l15.3-5.7
			c0.1,0,0.3-0.1,0.4-0.1c0.6,0,1,0.5,1,1.1v3.6h15.1c0.7,0,1.2,0.5,1.2,1.2v22.3c0,0.5-0.3,1.1-0.7,1.4l-10.2,7
			C1090.3,176.7,1090,176.8,1089.6,176.8z"/>
	</g>
	<path class="st1" d="M1089.6,405c-0.2,0-0.4,0-0.5-0.1l-20.6-7.3c-0.5-0.2-1-0.8-1-1.4v-21c0-0.6,0.4-1.2,0.9-1.4l15.3-5.7
		c0.1,0,0.3-0.1,0.4-0.1c0.6,0,1,0.5,1,1.1v3.6h15.1c0.7,0,1.2,0.5,1.2,1.2v22.3c0,0.5-0.3,1.1-0.7,1.4l-10.2,7
		C1090.3,404.9,1090,405,1089.6,405z"/>
	<g>
		<path class="st2" d="M967.9,156.6l-7.4-12.7l-7.4,12.7c-0.9,1.4-1.4,3-1.4,4.7c0,4.8,3.9,8.7,8.7,8.7c4.8,0,8.7-3.9,8.7-8.7
			C969.3,159.6,968.8,158,967.9,156.6z"/>
	</g>
	<g>
		<path class="st2" d="M1094.1,44.1l-8.7-15l-8.7,15c-1,1.6-1.6,3.5-1.6,5.5c0,5.7,4.6,10.3,10.3,10.3c5.7,0,10.3-4.6,10.3-10.3
			C1095.8,47.6,1095.2,45.7,1094.1,44.1z"/>
	</g>
	<g>
		<path class="st2" d="M970,385.5l-8.7-15l-8.7,15c-1,1.6-1.6,3.5-1.6,5.5c0,5.7,4.6,10.3,10.3,10.3c5.7,0,10.3-4.6,10.3-10.3
			C971.6,389,971,387.1,970,385.5z"/>
	</g>
	<g>
		<path class="st1" d="M966.8,62.5l-15.9-15.9c-0.7-0.7-1.1-1.7-1.1-2.8s0.4-2,1.1-2.8l15.9-15.9l5.5,5.5l-13.2,13.2L972.3,57
			L966.8,62.5z"/>
	</g>
	<g>
		<path class="st1" d="M1091,290.7l-15.9-15.9c-0.7-0.7-1.1-1.7-1.1-2.8s0.4-2,1.1-2.8l15.9-15.9l5.5,5.5l-13.2,13.2l13.2,13.2
			L1091,290.7z"/>
	</g>
	<g>
		<g>
			<path class="st2" d="M955.3,289.9l-5.5-5.5l12.2-12.2L949.8,260l5.5-5.5l14.9,14.9c0.7,0.7,1.1,1.7,1.1,2.8s-0.4,2-1.1,2.8
				L955.3,289.9z"/>
		</g>
	</g>
	<g>
		<g>
			<path class="st2" d="M460.6,519.9l-5.5-5.5l12.2-12.2l-12.2-12.2l5.5-5.5l14.9,14.9c0.7,0.7,1.1,1.7,1.1,2.8s-0.4,2-1.1,2.8
				L460.6,519.9z"/>
		</g>
	</g>
	<g>
		<g>
			<path class="st2" d="M212.3,65.4l-5.5-5.5L219,47.7l-12.2-12.2l5.5-5.5l14.9,14.9c0.7,0.7,1.1,1.7,1.1,2.8c0,1-0.4,2-1.1,2.8
				L212.3,65.4z"/>
		</g>
	</g>
	<path class="st1" d="M846.8,518.2c-0.2,0-0.4,0-0.5-0.1l-20.6-7.3c-0.5-0.2-1-0.8-1-1.3v-21c0-0.6,0.4-1.2,0.9-1.4l15.3-5.7
		c0.1,0,0.3-0.1,0.4-0.1c0.6,0,1,0.5,1,1.1v3.6h15.1c0.7,0,1.2,0.5,1.2,1.2v22.3c0,0.5-0.3,1.1-0.7,1.4l-10.2,7
		C847.5,518.1,847.2,518.2,846.8,518.2z"/>
	<g>
		<path class="st2" d="M1598,502.3l-8.7-15l-8.7,15c-1,1.6-1.6,3.5-1.6,5.5c0,5.7,4.6,10.3,10.3,10.3c5.7,0,10.3-4.6,10.3-10.3
			C1599.6,505.8,1599,503.9,1598,502.3z"/>
	</g>
	<g>
		<path class="st1" d="M1470.7,520.7l-15.9-15.9c-0.7-0.7-1.1-1.7-1.1-2.8s0.4-2,1.1-2.8l15.9-15.9l5.5,5.5l-13.2,13.2l13.2,13.2
			L1470.7,520.7z"/>
	</g>
	<path class="st1" d="M100.1,61.8c-0.2,0-0.4,0-0.5-0.1L79,54.5c-0.5-0.2-1-0.8-1-1.3v-21c0-0.6,0.4-1.2,0.9-1.4l15.3-5.7
		c0.1,0,0.3-0.1,0.4-0.1c0.6,0,1,0.5,1,1.1v3.6h15.1c0.7,0,1.2,0.5,1.2,1.2v22.3c0,0.5-0.3,1.1-0.7,1.4l-10.2,7
		C100.9,61.7,100.5,61.8,100.1,61.8z"/>
	<path class="st1" d="M100.1,291.9c-0.2,0-0.4,0-0.5-0.1L79,284.5c-0.5-0.2-1-0.8-1-1.3v-21c0-0.6,0.4-1.2,0.9-1.4l15.3-5.7
		c0.1,0,0.3-0.1,0.4-0.1c0.6,0,1,0.5,1,1.1v3.6h15.1c0.7,0,1.2,0.5,1.2,1.2v22.3c0,0.5-0.3,1.1-0.7,1.4l-10.2,7
		C100.9,291.7,100.5,291.9,100.1,291.9z"/>
	<path class="st1" d="M100.1,520.1c-0.2,0-0.4,0-0.5-0.1L79,512.7c-0.5-0.2-1-0.8-1-1.3v-21c0-0.6,0.4-1.2,0.9-1.4l15.3-5.7
		c0.1,0,0.3-0.1,0.4-0.1c0.6,0,1,0.5,1,1.1v3.6h15.1c0.7,0,1.2,0.5,1.2,1.2v22.3c0,0.5-0.3,1.1-0.7,1.4l-10.2,7
		C100.9,519.9,100.5,520.1,100.1,520.1z"/>
	<g>
		<path class="st2" d="M104.7,159.1L96,144l-8.7,15c-1,1.6-1.6,3.5-1.6,5.5c0,5.7,4.6,10.3,10.3,10.3c5.7,0,10.3-4.6,10.3-10.3
			C106.3,162.6,105.7,160.7,104.7,159.1z"/>
	</g>
	<g>
		<path class="st1" d="M101.5,405.7l-15.9-15.9c-0.7-0.7-1.1-1.7-1.1-2.8c0-1,0.4-2,1.1-2.8l15.9-15.9l5.5,5.5L93.9,387l13.2,13.2
			L101.5,405.7z"/>
	</g>
	<g>
		<path class="st1" d="M1096.4,517.1l-15.9-15.9c-0.7-0.7-1.1-1.7-1.1-2.8s0.4-2,1.1-2.8l15.9-15.9l5.5,5.5l-13.2,13.2l13.2,13.2
			L1096.4,517.1z"/>
	</g>
	<g>
		<g>
			<path class="st2" d="M960.8,516.3l-5.5-5.5l12.2-12.2l-12.2-12.2l5.5-5.5l14.9,14.9c0.7,0.7,1.1,1.7,1.1,2.8s-0.4,2-1.1,2.8
				L960.8,516.3z"/>
		</g>
	</g>
</g>
<g class="st0">
	<g>
		<path class="st2" d="M1846.2,271.6l-7.4-12.7l-7.4,12.7c-0.9,1.4-1.4,3-1.4,4.7c0,4.8,3.9,8.7,8.7,8.7c4.8,0,8.7-3.9,8.7-8.7
			C1847.5,274.6,1847,273,1846.2,271.6z"/>
	</g>
	<g>
		<path class="st2" d="M1848.2,500.5l-8.7-15l-8.7,15c-1,1.6-1.6,3.5-1.6,5.5c0,5.7,4.6,10.3,10.3,10.3c5.7,0,10.3-4.6,10.3-10.3
			C1849.9,504,1849.3,502.1,1848.2,500.5z"/>
	</g>
	<g>
		<path class="st1" d="M1845.1,177.5l-15.9-15.9c-0.7-0.7-1.1-1.7-1.1-2.8s0.4-2,1.1-2.8l15.9-15.9l5.5,5.5l-13.2,13.2l13.2,13.2
			L1845.1,177.5z"/>
	</g>
	<g>
		<g>
			<path class="st2" d="M1833.6,404.9l-5.5-5.5l12.2-12.2l-12.2-12.2l5.5-5.5l14.9,14.9c0.7,0.7,1.1,1.7,1.1,2.8s-0.4,2-1.1,2.8
				L1833.6,404.9z"/>
		</g>
	</g>
	<g>
		<g>
			<path class="st2" d="M1833.6,65.4l-5.5-5.5l12.2-12.2l-12.2-12.2l5.5-5.5l14.9,14.9c0.7,0.7,1.1,1.7,1.1,2.8c0,1-0.4,2-1.1,2.8
				L1833.6,65.4z"/>
		</g>
	</g>
	<path class="st1" d="M1721.4,61.8c-0.2,0-0.4,0-0.5-0.1l-20.6-7.3c-0.5-0.2-1-0.8-1-1.3v-21c0-0.6,0.4-1.2,0.9-1.4l15.3-5.7
		c0.1,0,0.3-0.1,0.4-0.1c0.6,0,1,0.5,1,1.1v3.6h15.1c0.7,0,1.2,0.5,1.2,1.2v22.3c0,0.5-0.3,1.1-0.7,1.4l-10.2,7
		C1722.1,61.7,1721.7,61.8,1721.4,61.8z"/>
	<path class="st1" d="M1721.4,291.9c-0.2,0-0.4,0-0.5-0.1l-20.6-7.3c-0.5-0.2-1-0.8-1-1.3v-21c0-0.6,0.4-1.2,0.9-1.4l15.3-5.7
		c0.1,0,0.3-0.1,0.4-0.1c0.6,0,1,0.5,1,1.1v3.6h15.1c0.7,0,1.2,0.5,1.2,1.2v22.3c0,0.5-0.3,1.1-0.7,1.4l-10.2,7
		C1722.1,291.7,1721.7,291.9,1721.4,291.9z"/>
	<path class="st1" d="M1721.4,520.1c-0.2,0-0.4,0-0.5-0.1l-20.6-7.3c-0.5-0.2-1-0.8-1-1.3v-21c0-0.6,0.4-1.2,0.9-1.4l15.3-5.7
		c0.1,0,0.3-0.1,0.4-0.1c0.6,0,1,0.5,1,1.1v3.6h15.1c0.7,0,1.2,0.5,1.2,1.2v22.3c0,0.5-0.3,1.1-0.7,1.4l-10.2,7
		C1722.1,519.9,1721.7,520.1,1721.4,520.1z"/>
	<g>
		<path class="st2" d="M1725.9,159.1l-8.7-15l-8.7,15c-1,1.6-1.6,3.5-1.6,5.5c0,5.7,4.6,10.3,10.3,10.3c5.7,0,10.3-4.6,10.3-10.3
			C1727.5,162.6,1726.9,160.7,1725.9,159.1z"/>
	</g>
	<g>
		<path class="st1" d="M1722.8,405.7l-15.9-15.9c-0.7-0.7-1.1-1.7-1.1-2.8c0-1,0.4-2,1.1-2.8l15.9-15.9l5.5,5.5l-13.2,13.2
			l13.2,13.2L1722.8,405.7z"/>
	</g>
</g>
</svg>
