<svg xmlns="http://www.w3.org/2000/svg" viewBox="0 0 98.95 102.42"><defs><style>.cls-1{fill:#00447c;}.cls-2,.cls-4{fill:none;}.cls-2{stroke:#2bf;stroke-miterlimit:10;stroke-width:4px;}.cls-3{fill:#2bf;}.cls-4{stroke:#fff;stroke-linecap:round;stroke-linejoin:round;stroke-width:3px;}</style></defs><title>Asset 2</title><g id="Layer_2" data-name="Layer 2"><g id="Layer_1-2" data-name="Layer 1"><rect class="cls-1" width="98.95" height="102.42"/><path class="cls-2" d="M82.5,42.32c1,.44,1,1.17,0,1.61L52.28,57.29a5.24,5.24,0,0,1-3.66,0L18.4,43.93c-1-.44-1-1.17,0-1.61L48.62,29a5.24,5.24,0,0,1,3.66,0Z"/><path class="cls-3" d="M50.45,75.5c-9.81,0-17.5-4.39-17.5-10V56l4,2v7.5c0,2.83,5.77,6,13.5,6S64,68.33,64,65.5V58l4-2v9.5C68,71.11,60.26,75.5,50.45,75.5Z"/><polyline class="cls-4" points="50.95 43.5 75.95 46.75 75.95 63"/></g></g></svg>